<?xml version="1.0" standalone="no"?>
<!DOCTYPE svg PUBLIC "-//W3C//DTD SVG 20010904//EN"
 "http://www.w3.org/TR/2001/REC-SVG-20010904/DTD/svg10.dtd">
<svg version="1.0" xmlns="http://www.w3.org/2000/svg"
 width="200.000000pt" height="203.000000pt" viewBox="0 0 200.000000 203.000000"
 preserveAspectRatio="xMidYMid meet">

<g transform="translate(0.000000,203.000000) scale(0.100000,-0.100000)"
fill="#000000" stroke="none">
<path d="M930 2011 c-30 -5 -75 -14 -100 -21 -25 -8 -49 -13 -54 -11 -12 3
-129 -37 -195 -66 -133 -59 -282 -180 -366 -298 -88 -123 -167 -318 -195 -481
-16 -89 -8 -288 14 -369 69 -248 220 -457 430 -596 161 -107 341 -159 546
-159 560 0 981 427 980 994 0 262 -89 483 -274 683 -36 39 -66 78 -66 87 0 9
-6 16 -12 16 -7 0 -38 16 -68 35 -30 19 -62 35 -72 35 -10 0 -18 4 -18 9 0 5
-12 24 -27 41 -23 27 -31 31 -60 27 -32 -6 -56 7 -31 16 7 2 -14 7 -47 11 -33
4 -67 11 -75 17 -8 5 -25 14 -38 19 -32 14 -205 20 -272 11z m23 -156 c-11
-22 -19 -31 -24 -23 -5 7 -9 5 -12 -8 -2 -10 -3 -6 -1 10 l4 29 -49 -7 c-27
-4 -63 -11 -80 -17 l-31 -11 19 -32 c10 -17 24 -47 30 -67 l11 -36 55 10 c49
9 53 12 44 29 -6 11 -8 22 -5 26 3 3 6 0 6 -7 0 -7 3 -10 8 -8 4 2 17 -7 29
-20 l22 -23 -27 -6 c-15 -3 -43 -10 -62 -15 -69 -18 -87 -13 -100 29 -7 20
-23 56 -36 80 l-23 43 32 19 c17 11 52 22 77 25 25 4 50 8 55 10 6 2 25 4 42
4 l33 1 -17 -35z m300 10 c31 -10 57 -24 57 -30 0 -6 -21 -45 -46 -88 -40 -66
-48 -75 -64 -67 -10 6 -35 10 -54 10 -35 0 -35 1 -29 33 8 41 13 47 15 16 0
-13 4 -1 8 26 l7 50 1 -47 c2 -43 4 -47 33 -53 17 -4 32 -5 34 -3 10 12 65
103 65 110 0 7 -73 30 -140 44 l-35 6 19 -21 c11 -12 16 -24 13 -28 -4 -3 -7
0 -7 8 0 12 -2 12 -9 0 -7 -11 -10 -9 -15 7 -4 11 -21 27 -39 36 -32 17 -32
17 48 13 44 -2 106 -12 138 -22z m-617 -67 c4 -6 15 -44 24 -84 l17 -73 -93
-86 c-51 -47 -112 -115 -136 -150 -51 -78 -68 -81 -166 -35 l-64 30 28 48 c79
136 169 233 291 313 81 53 88 55 99 37z m491 -10 c-3 -8 -6 -5 -6 6 -1 11 2
17 5 13 3 -3 4 -12 1 -19z m387 -56 c117 -70 244 -212 290 -324 l16 -36 -93
-22 c-86 -20 -92 -21 -102 -5 -51 89 -167 200 -252 244 -27 14 -28 32 -7 96
21 60 38 40 21 -24 -10 -37 -9 -44 5 -54 108 -77 148 -111 189 -159 26 -32 52
-65 57 -74 8 -15 15 -15 73 -2 61 14 64 15 65 46 1 17 -2 30 -6 27 -4 -2 -24
22 -44 54 -46 75 -156 178 -237 221 -57 30 -63 32 -75 16 -14 -20 -24 -3 -16
27 6 25 40 16 116 -31z m-328 -187 c49 -9 100 -23 114 -32 14 -9 64 -55 111
-103 132 -132 179 -245 179 -428 0 -160 -44 -273 -148 -383 -103 -110 -266
-178 -424 -179 -46 0 -58 3 -58 16 0 8 -4 12 -10 9 -5 -3 -32 -3 -60 1 -42 5
-51 11 -56 30 -5 19 -11 23 -29 18 -13 -3 -26 -1 -29 5 -4 6 -18 11 -32 11
-13 0 -24 6 -25 13 0 6 -45 50 -99 97 -80 68 -100 90 -100 112 0 15 -14 62
-31 105 -40 101 -46 170 -25 265 39 176 144 316 290 388 137 68 263 84 432 55z
m-934 -286 l68 -41 0 -89 c0 -49 -2 -89 -4 -89 -2 0 -29 12 -60 26 -54 25 -78
26 -118 9 -16 -6 -18 -1 -17 36 l2 44 7 -40 7 -40 3 45 c2 32 4 37 7 18 4 -25
9 -28 41 -28 20 -1 48 -7 62 -15 14 -8 28 -14 31 -15 9 0 19 83 12 108 -4 17
-89 82 -107 82 -3 0 -8 -15 -12 -32 -6 -29 -8 -31 -14 -12 -10 26 -1 74 13 74
6 0 41 -19 79 -41z m1613 -32 c19 -40 23 -62 18 -91 l-6 -38 -17 66 c-9 36
-19 68 -22 72 -4 3 -34 -7 -67 -23 -51 -23 -61 -32 -61 -53 0 -31 14 -55 28
-46 6 3 20 2 33 -2 20 -8 18 -10 -20 -20 -43 -10 -43 -10 -57 24 -8 18 -14 47
-14 63 0 26 5 32 38 41 20 5 55 21 77 34 22 13 41 25 43 25 2 1 14 -23 27 -52z
m-1706 -47 c0 -9 -4 -8 -9 5 -5 11 -9 27 -9 35 0 9 4 8 9 -5 5 -11 9 -27 9
-35z m1738 -77 c-3 -10 -5 -4 -5 12 0 17 2 24 5 18 2 -7 2 -21 0 -30z m-48
-18 c16 -8 31 -11 35 -8 3 4 6 -3 6 -15 0 -25 -16 -37 -23 -17 -4 8 -21 18
-39 24 -22 6 -26 10 -13 11 l20 1 -20 9 c-11 5 -14 9 -7 9 7 1 26 -6 41 -14z
m58 -137 c-2 -24 -4 -7 -4 37 0 44 2 63 4 43 2 -21 2 -57 0 -80z m-20 25 c-3
-10 -5 -2 -5 17 0 19 2 27 5 18 2 -10 2 -26 0 -35z m-1561 -74 c19 -74 18
-119 -2 -119 -9 0 -45 -14 -81 -32 -63 -31 -93 -30 -73 2 7 10 10 11 10 2 0
-8 20 -1 53 18 30 16 61 30 71 30 12 0 16 6 12 18 -2 9 -7 32 -11 49 -6 32 -7
32 -31 16 -17 -11 -38 -14 -69 -11 -45 6 -45 5 -46 -26 0 -17 -4 -40 -8 -51
-6 -15 -10 -6 -15 35 -4 30 -10 68 -13 84 l-5 29 27 -21 c51 -40 155 -22 155
26 0 27 11 6 26 -49z m1564 13 c0 -18 -3 -23 -9 -14 -6 10 -10 10 -21 -2 -20
-25 -83 -40 -107 -27 -19 10 -21 7 -25 -32 -5 -47 0 -52 72 -89 25 -13 47 -24
49 -26 3 -1 0 -7 -5 -12 -8 -8 -97 36 -151 74 -4 3 16 128 20 132 2 3 18 -3
34 -12 35 -21 75 -13 106 20 27 27 37 24 37 -12z m-13 -79 c-3 -10 -5 -2 -5
17 0 19 2 27 5 18 2 -10 2 -26 0 -35z m20 10 c-3 -10 -5 -4 -5 12 0 17 2 24 5
18 2 -7 2 -21 0 -30z m-19 -93 c0 -9 -3 -7 -8 5 -8 19 -9 19 -9 1 -1 -11 -3
-17 -6 -14 -3 3 -2 20 2 39 7 33 7 33 14 9 4 -14 7 -32 7 -40z m9 38 c-3 -8
-6 -5 -6 6 -1 11 2 17 5 13 3 -3 4 -12 1 -19z m-1727 -25 c-11 -17 -11 -17 -6
0 3 10 6 24 7 30 0 9 2 9 5 0 3 -7 0 -20 -6 -30z m297 -193 c73 -77 171 -161
219 -188 12 -6 10 -15 -6 -47 -11 -22 -20 -46 -20 -55 0 -13 -1 -13 -10 0 -8
12 -10 12 -10 1 0 -8 -3 -12 -6 -8 -3 3 3 25 14 50 l20 44 -67 51 c-36 28
-102 88 -146 133 -44 46 -87 83 -95 84 -50 5 -55 7 -25 15 17 4 34 8 38 9 4 0
47 -40 94 -89z m1195 83 c-7 -3 -31 -33 -52 -67 -33 -52 -136 -163 -162 -174
-4 -2 -21 -16 -37 -31 -28 -26 -29 -31 -20 -65 7 -25 7 -46 0 -64 -5 -15 -10
-20 -11 -12 0 8 -7 41 -15 73 l-13 57 38 20 c21 11 41 29 45 39 3 11 14 23 24
26 30 9 94 81 131 145 29 49 40 60 60 59 14 0 19 -3 12 -6z m68 -22 c29 -13
37 -20 26 -24 -9 -4 -34 2 -57 12 -25 11 -36 21 -27 24 7 3 14 6 14 6 1 1 21
-7 44 -18z m-1415 -1 c13 -5 14 -9 5 -9 -8 0 -24 4 -35 9 -13 5 -14 9 -5 9 8
0 24 -4 35 -9z m-45 -11 c12 -8 10 -9 -8 -4 -23 7 -23 6 -8 -28 44 -107 142
-217 265 -297 78 -52 96 -59 103 -38 3 8 6 7 10 -3 3 -9 2 -22 -3 -30 -19 -32
-208 99 -300 207 -56 66 -113 169 -105 190 6 16 25 18 46 3z m1540 -15 c0 -3
-16 -37 -36 -74 -69 -131 -178 -242 -306 -310 -65 -35 -86 -31 -69 11 8 19 10
20 10 5 1 -22 13 -18 91 27 109 64 279 268 266 319 -4 17 6 26 32 27 6 1 12
-2 12 -5z m-540 -326 c33 -76 49 -139 34 -137 -17 1 -49 18 -36 18 6 1 12 8
12 17 0 21 -51 137 -65 146 -14 11 -27 10 -21 -1 4 -5 -4 -7 -16 -3 -20 5 -19
7 12 18 19 7 38 13 41 13 4 1 21 -32 39 -71z m-390 43 c25 -7 24 -8 -8 -15
-25 -6 -36 -16 -48 -44 -8 -21 -13 -47 -11 -59 2 -12 -1 -24 -7 -27 -6 -2 4
-5 22 -5 23 -1 32 -6 33 -18 1 -16 2 -17 6 -1 2 10 10 15 19 11 12 -4 13 -1 4
22 -5 14 -9 38 -9 53 1 24 3 23 9 -8 l7 -35 3 35 c2 33 3 33 10 -12 5 -26 18
-61 30 -78 l21 -30 -26 10 c-14 5 -37 10 -51 10 -14 0 -27 7 -30 15 -4 8 -14
15 -24 15 -56 0 -62 26 -29 114 22 58 29 61 79 47z m280 -11 c18 -12 2 -12
-25 0 -13 6 -15 9 -5 9 8 0 22 -4 30 -9z m-230 -7 c0 -5 -5 -15 -10 -23 -9
-13 -10 -13 -10 0 0 13 -1 13 -10 0 -8 -13 -10 -13 -10 2 0 15 12 25 33 27 4
1 7 -2 7 -6z m195 -3 c25 -11 -1 -11 -35 0 -20 6 -21 8 -5 8 11 0 29 -3 40 -8z
m-21 -29 c9 -7 16 -19 16 -25 0 -6 -4 -5 -9 3 -5 7 -10 9 -12 3 -2 -6 -12 0
-21 13 -20 26 -3 30 26 6z m17 -71 l8 35 -3 -35 c-2 -19 -6 -43 -10 -52 -6
-12 -2 -18 16 -21 22 -4 22 -4 -2 -4 -43 -1 -46 -5 -10 -13 31 -7 29 -8 -22
-9 l-56 -1 29 29 c21 21 29 40 31 68 l1 38 5 -35 5 -35 8 35z m144 -60 c13 -5
14 -9 5 -9 -8 0 -24 4 -35 9 -13 5 -14 9 -5 9 8 0 24 -4 35 -9z m-58 -6 c-3
-3 -12 -4 -19 -1 -8 3 -5 6 6 6 11 1 17 -2 13 -5z m-10 -20 c-3 -3 -12 -4 -19
-1 -8 3 -5 6 6 6 11 1 17 -2 13 -5z"/>
<path d="M530 1729 c-40 -29 -101 -80 -134 -114 -58 -59 -136 -175 -136 -201
0 -12 60 -38 110 -47 21 -5 30 2 60 50 19 30 76 95 127 142 l92 88 -10 44
c-17 82 -19 89 -28 89 -4 0 -41 -23 -81 -51z"/>
<path d="M921 1474 c-171 -46 -311 -187 -356 -359 -65 -252 99 -522 360 -590
345 -89 679 245 590 590 -69 262 -342 427 -594 359z m228 -29 c179 -42 315
-191 344 -374 47 -307 -217 -571 -524 -524 -250 39 -423 277 -381 526 45 267
296 434 561 372z"/>
</g>
</svg>
